<!DOCTYPE svg PUBLIC "-//W3C//DTD SVG 1.1//EN" "http://www.w3.org/Graphics/SVG/1.1/DTD/svg11.dtd">

<!-- Uploaded to: SVG Repo, www.svgrepo.com, Transformed by: SVG Repo Mixer Tools -->
<svg height="800px" width="800px" version="1.1" id="Layer_1" xmlns="http://www.w3.org/2000/svg" xmlns:xlink="http://www.w3.org/1999/xlink" viewBox="-51.2 -51.2 614.40 614.40" xml:space="preserve" fill="#000000" stroke="#000000" stroke-width="0.00512">

<g id="SVGRepo_bgCarrier" stroke-width="0" transform="translate(0,0), scale(1)">

<path transform="translate(-51.2, -51.2), scale(38.4)" fill="#9ee7ff" d="M9.166.33a2.25 2.25 0 00-2.332 0l-5.25 3.182A2.25 2.25 0 00.5 5.436v5.128a2.25 2.25 0 001.084 1.924l5.25 3.182a2.25 2.25 0 002.332 0l5.25-3.182a2.25 2.25 0 001.084-1.924V5.436a2.25 2.25 0 00-1.084-1.924L9.166.33z" strokewidth="0"/>

</g>

<g id="SVGRepo_tracerCarrier" stroke-linecap="round" stroke-linejoin="round" stroke="#CCCCCC" stroke-width="5.12"/>

<g id="SVGRepo_iconCarrier"> <path style="fill:#25B6D2;" d="M0,260.908l174.648-81.136v38.568l-132.08,57.848v0.728l132.08,57.848v38.568L0,292.212V260.908z"/> <path style="fill:#415E72;" d="M201.6,387.9l77.864-263.8h36.752L238.4,387.9H201.6z"/> <path style="fill:#E04F5F;" d="M512,293.284L337.352,373.34v-38.568l134.992-57.848v-0.728L337.352,218.34v-38.568L512,259.828 V293.284z"/> </g>

</svg>